<svg xmlns="http://www.w3.org/2000/svg" viewBox="0 0 300 400" role="img" aria-label="한국 실루엣">
  <!-- Stylised mainland silhouette -->
  <path
    d="M128 28
       C 140 24 152 26 162 34
       C 172 42 180 46 186 58
       C 192 70 190 82 200 92
       C 214 102 234 108 244 122
       C 254 136 248 156 256 172
       C 264 186 264 198 256 210
       C 252 218 244 228 242 240
       C 240 254 246 266 238 278
       C 230 290 212 296 204 310
       C 198 322 194 336 186 350
       C 178 362 166 370 152 372
       C 140 372 130 366 120 358
       C 110 348 104 334 96 324
       C 86 312 72 308 64 298
       C 56 286 60 270 56 258
       C 50 242 34 234 34 220
       C 36 206 50 198 58 188
       C 66 176 66 160 70 148
       C 74 134 76 120 84 108
       C 94 92 108 78 116 62
       C 120 50 118 38 128 28 Z"
    fill="#D7E1F2"
    stroke="#A8B7D6"
    stroke-width="1.2"
    stroke-linejoin="round"
  />
  <!-- Jeju island -->
  <ellipse cx="104" cy="394" rx="22" ry="10" fill="#D7E1F2" stroke="#A8B7D6" stroke-width="1.2"/>
  <!-- Ulleungdo dot -->
  <circle cx="268" cy="186" r="3" fill="#C4D1EA"/>
</svg>
